<svg id="Capa_1" enable-background="new 0 0 513.355 513.355" height="512" viewBox="0 0 513.355 513.355" width="512" style="fill: #3AAAE7" xmlns="http://www.w3.org/2000/svg"><path d="m75.966 283.768h30v50h-30z" transform="matrix(.707 -.707 .707 .707 -191.688 154.759)"/><path d="m328.072.799-85.243.001c-5.594 0-10.723 3.112-13.307 8.076l-128.275 246.532 38.049 38.049 203.776-235.614v-41.855c0-1.931-.296-3.866-1.015-5.658-2.394-5.96-8.005-9.531-13.985-9.531z"/><path d="m41.311 322.752-10.607 10.607c-40.94 40.94-40.94 107.553 0 148.492s107.553 40.94 148.492 0l10.449-10.765z"/><path d="m132.535 340.336h30v50h-30z" transform="matrix(.707 -.707 .707 .707 -215.12 211.328)"/><path d="m413.071 85.8h-54.043l-198.403 228.987 37.474 37.474 229.972-198.593v-52.868c.001-8.285-6.715-15.001-15-15z"/><path d="m189.103 396.905h30v50h-30z" transform="matrix(.707 -.707 .707 .707 -238.551 267.896)"/><path d="m498.298 169.914h-42.627l-236.252 203.667 38.08 38.08 247.73-128.451c1.392-.722 2.64-1.643 3.715-2.718 2.781-2.782 4.411-6.593 4.411-10.648l-.001-84.874c.001-8.315-6.74-15.056-15.056-15.056z"/></svg>