<?xml version="1.0" encoding="iso-8859-1"?>
<!-- Generator: Adobe Illustrator 19.0.0, SVG Export Plug-In . SVG Version: 6.00 Build 0)  -->
<svg version="1.1" id="Capa_1" xmlns="http://www.w3.org/2000/svg" xmlns:xlink="http://www.w3.org/1999/xlink" x="0px" y="0px"
	 viewBox="0 0 511.999 511.999" style="enable-background:new 0 0 511.999 511.999;" xml:space="preserve">
<g>
	<g>
		<path d="M416.306,314.694v-79.608c-0.001-8.331-6.754-15.084-15.085-15.084H16.248c-8.33,0-15.084,6.753-15.084,15.084v79.608
			c0,70.343,38.935,132.196,97.389,167.138H16.257c-8.33,0-15.084,6.753-15.084,15.084c0,8.33,6.752,15.084,15.084,15.084h384.966
			c8.33,0,15.084-6.753,15.084-15.084c0-8.33-6.753-15.084-15.084-15.084h-82.305C377.37,446.89,416.306,385.037,416.306,314.694z"
			/>
	</g>
</g>
<g>
	<g>
		<path d="M446.472,247.15v30.833c19.686,5.413,34.196,23.461,34.196,44.844c0,23.802-17.976,43.473-41.062,46.181
			c-2.69,10.467-6.136,20.651-10.285,30.497h4.836c42.28,0,76.678-34.398,76.678-76.678
			C510.835,284.738,482.916,253.061,446.472,247.15z"/>
	</g>
</g>
<g>
	<g>
		<path d="M313.922,98.677c19.682-15.899,24.138-32.895,24.409-44.354c0.662-27.877-21.351-48.277-23.864-50.51
			c-6.224-5.536-15.758-4.978-21.295,1.247c-5.536,6.225-4.978,15.758,1.247,21.295c0.141,0.126,14.087,13.174,13.753,27.253
			c-0.178,7.501-4.498,14.567-13.207,21.602c-19.682,15.899-24.138,32.895-24.409,44.354c-0.663,27.877,21.351,48.277,23.863,50.511
			c2.881,2.562,6.477,3.824,10.058,3.824c4.156,0,8.293-1.7,11.267-5.045c5.536-6.225,5.008-15.732-1.217-21.268
			c-3.959-3.6-14.157-15.543-13.81-27.42C300.936,112.707,305.255,105.677,313.922,98.677z"/>
	</g>
</g>
<g>
	<g>
		<path d="M218.218,98.677c19.682-15.899,24.138-32.895,24.409-44.354c0.662-27.877-21.351-48.277-23.864-50.51
			c-6.223-5.536-15.758-4.978-21.295,1.247c-5.536,6.225-4.978,15.758,1.247,21.295c0.141,0.126,14.087,13.174,13.753,27.253
			c-0.178,7.501-4.498,14.567-13.207,21.602c-19.682,15.899-24.138,32.895-24.409,44.354c-0.662,27.877,21.351,48.277,23.863,50.511
			c2.881,2.562,6.477,3.824,10.058,3.824c4.156,0,8.293-1.7,11.267-5.045c5.536-6.225,5.008-15.732-1.217-21.268
			c-3.959-3.6-14.157-15.543-13.81-27.42C205.232,112.707,209.551,105.677,218.218,98.677z"/>
	</g>
</g>
<g>
	<g>
		<path d="M122.512,98.678c19.682-15.899,24.138-32.895,24.409-44.354c0.662-27.877-21.351-48.277-23.864-50.51
			c-6.224-5.536-15.758-4.978-21.295,1.247c-5.536,6.224-4.978,15.758,1.247,21.295c0.141,0.126,14.087,13.174,13.753,27.253
			c-0.178,7.501-4.498,14.567-13.207,21.602c-19.682,15.899-24.138,32.895-24.409,44.354c-0.661,27.876,21.352,48.276,23.864,50.51
			c2.874,2.556,6.453,3.813,10.019,3.813c4.157,0,8.296-1.709,11.277-5.06c5.536-6.225,4.978-15.758-1.247-21.295
			c-0.141-0.126-14.087-13.174-13.753-27.253C109.483,112.779,113.803,105.712,122.512,98.678z"/>
	</g>
</g>
<g>
</g>
<g>
</g>
<g>
</g>
<g>
</g>
<g>
</g>
<g>
</g>
<g>
</g>
<g>
</g>
<g>
</g>
<g>
</g>
<g>
</g>
<g>
</g>
<g>
</g>
<g>
</g>
<g>
</g>
</svg>
